<svg width="15" height="15" viewBox="0 0 15 15" fill="none" xmlns="http://www.w3.org/2000/svg">
<g clip-path="url(#clip0_646_1694)">
<path d="M0.0192153 8.92529H2.75868C2.75868 10.8463 3.65069 11.7561 5.31154 11.7561H13.0373C13.576 11.7462 14.6533 12.0556 14.6533 13.3731C14.6533 14.6907 13.576 15.0002 13.0373 14.9902H5.31154C3.40436 14.9902 2.07196 14.0267 1.25085 13.2051C0.138747 12.0923 -0.0728459 9.93116 0.0192153 8.92529Z" fill="#E96026"/>
<path d="M0.0192153 6.0651H2.75868C2.75868 4.14406 3.65069 3.23433 5.31154 3.23433H13.0373C13.576 3.24429 14.6533 2.93482 14.6533 1.61728C14.6533 0.299734 13.576 -0.00972905 13.0373 0.000230351H5.31154C3.40436 0.000230351 2.07196 0.963734 1.25085 1.78533C0.138747 2.89811 -0.0728459 5.05927 0.0192153 6.0651Z" fill="#E96026"/>
<path d="M8.10724 7.40179C8.10724 8.3175 7.3653 9.05991 6.45009 9.05991C5.53489 9.05991 4.79297 8.3175 4.79297 7.40179C4.79297 6.48602 5.53489 5.74365 6.45009 5.74365C7.3653 5.74365 8.10724 6.48602 8.10724 7.40179Z" fill="#E96026"/>
<path d="M12.5408 7.40179C12.5408 8.3175 11.7989 9.05991 10.8837 9.05991C9.9685 9.05991 9.22656 8.3175 9.22656 7.40179C9.22656 6.48602 9.9685 5.74365 10.8837 5.74365C11.7989 5.74365 12.5408 6.48602 12.5408 7.40179Z" fill="#E96026"/>
<path d="M6.4502 5.74365H10.8319V9.05991H6.4502V5.74365Z" fill="#E96026"/>
</g>
<defs>
<clipPath id="clip0_646_1694">
<rect width="14.6533" height="15" fill="white"/>
</clipPath>
</defs>
</svg>
