<svg width="21" height="20" viewBox="0 0 21 20" fill="none" xmlns="http://www.w3.org/2000/svg">
<path d="M0.306256 11.9082H4.04528C4.04528 14.4712 5.26277 15.6849 7.52962 15.6849H18.0743C18.8096 15.6717 20.28 16.0846 20.28 17.8423C20.28 19.6002 18.8096 20.0131 18.0743 19.9998H7.52962C4.92656 19.9998 3.108 18.7143 1.98729 17.6182C0.469402 16.1334 0.180604 13.2502 0.306256 11.9082Z" fill="white"/>
<path d="M0.306256 8.09184H4.04528C4.04528 5.52886 5.26277 4.31512 7.52962 4.31512H18.0743C18.8096 4.32841 20.28 3.91552 20.28 2.15771C20.28 0.399894 18.8096 -0.0129801 18.0743 0.000307325H7.52962C4.92656 0.000307325 3.108 1.28578 1.98729 2.38193C0.469402 3.86655 0.180604 6.74989 0.306256 8.09184Z" fill="white"/>
<path d="M11.3451 9.87531C11.3451 11.097 10.3324 12.0875 9.0833 12.0875C7.83417 12.0875 6.82153 11.097 6.82153 9.87531C6.82153 8.65352 7.83417 7.66309 9.0833 7.66309C10.3324 7.66309 11.3451 8.65352 11.3451 9.87531Z" fill="white"/>
<path d="M17.3968 9.87531C17.3968 11.097 16.3842 12.0875 15.1351 12.0875C13.886 12.0875 12.8733 11.097 12.8733 9.87531C12.8733 8.65352 13.886 7.66309 15.1351 7.66309C16.3842 7.66309 17.3968 8.65352 17.3968 9.87531Z" fill="white"/>
<path d="M9.08325 7.66309H15.0637V12.0875H9.08325V7.66309Z" fill="white"/>
</svg>
