<svg id="Layer_1" data-name="Layer 1" xmlns="http://www.w3.org/2000/svg" viewBox="0 0 108 107">
  <defs>
    <style>
      .cls-1 {
        fill: #08b2f2;
      }

      .cls-2 {
        fill: #034faa;
      }

      .cls-3 {
        fill: #115aaf;
      }

      .cls-4 {
        fill: #0023a2;
      }

      .cls-5 {
        fill: #0028a2;
      }

      .cls-6 {
        fill: #5e8ac4;
      }

      .cls-7 {
        fill: #6083be;
      }

      .cls-8 {
        fill: #b2c2dd;
      }

      .cls-9 {
        fill: #718bc1;
      }

      .cls-10 {
        fill: #3273ba;
      }

      .cls-11 {
        fill: #427bbe;
      }

      .cls-12 {
        fill: #8094c4;
      }

      .cls-13 {
        fill: #7493c7;
      }

      .cls-14 {
        fill: #f6fafd;
      }

      .cls-15 {
        fill: #17b2f2;
      }

      .cls-16 {
        fill: #97dcf8;
      }

      .cls-17 {
        fill: none;
      }
    </style>
  </defs>
  <g>
    <g>
      <path class="cls-1" d="M0,55.10807a9.2885,9.2885,0,0,1,1.692-4.40256,48.70272,48.70272,0,0,1,4.46911-5.60322c.39287-.45825.79727-.90661,1.19121-1.364.16971-.197.32157-.29975.53442-.04134,2.25428,2.73686,4.87306,5.19553,6.49189,8.41794a5.84289,5.84289,0,0,1,.48166,5.21532,7.898,7.898,0,0,1-2.65783,2.86813,36.62584,36.62584,0,0,1-4.11292,2.769.77412.77412,0,0,1-.917.01745,38.07056,38.07056,0,0,1-5.39131-3.8569A5.13463,5.13463,0,0,1,0,55.10807Z"/>
      <path class="cls-2" d="M54.95142,56.83518q.43881-1.88985.8782-3.77956a1.018,1.018,0,0,1,1.29691-.51721c.164.10917.05253.238.027.35049-.4681,2.06607-.9439,4.1304-1.41013,6.19689a.38017.38017,0,0,1-.38717.35807c-1.31764.1454-1.38285.10682-1.67746-1.17263a19.23863,19.23863,0,0,0-.7404-2.60356c-.21951.93723-.42668,1.87763-.66544,2.80994-.08041.314-.00606.80754-.319.89753a4.48077,4.48077,0,0,1-1.45908.04355c-.25557-.01468-.226-.28842-.26942-.47708-.4447-1.93358-.89841-3.86519-1.32186-5.8034-.03985-.18243-.37983-.5927.12989-.59586.38148-.00237.96519-.3583,1.123.415.23612,1.15736.517,2.30563.78189,3.45706a1.63735,1.63735,0,0,0,.335.74267q.41293-1.76353.82567-3.52712c.03038-.13.05576-.2611.08727-.39076a.93173.93173,0,0,1,1.30542-.71986c.26088.0832.22941.29811.27253.48331q.44729,1.92143.89032,3.84384C54.75718,56.93946,54.85764,56.97493,54.95142,56.83518Z"/>
      <path class="cls-2" d="M66.753,59.40217a2.41193,2.41193,0,0,1-2.229-2.16227c.49362-.09534.99474-.23188,1.38294.25163a1.90037,1.90037,0,0,0,2.18578.674.91933.91933,0,0,0,.71112-.93721c-.00631-.457-.368-.57984-.71771-.66762-.75606-.18977-1.52811-.32164-2.27488-.54093a1.52235,1.52235,0,0,1-1.16755-1.39993A1.64411,1.64411,0,0,1,65.446,52.97a2.54126,2.54126,0,0,1,1.44139-.462,1.17068,1.17068,0,0,0,1.08259.0149,2.30044,2.30044,0,0,1,2.11894,1.828c.06.2865.02233.40668-.30016.40391-.48274-.00416-.89386.03614-1.21871-.51584a1.82094,1.82094,0,0,0-2.36434-.23366c-.33263.276-.30994.5152.0487.73246a3.34369,3.34369,0,0,0,1.082.32846c.26121.05526.528.08371.79036.134,1.39429.26742,2.02934.93522,1.987,2.08429A2.13782,2.13782,0,0,1,67.973,59.41063,1.60826,1.60826,0,0,0,66.753,59.40217Z"/>
      <path class="cls-2" d="M27.52993,57.50531a1.93057,1.93057,0,0,0,2.25264.63363.92291.92291,0,0,0,.64-.92211c-.00539-.41315-.3341-.555-.66534-.63834-.539-.13555-1.08646-.23678-1.62863-.36009-1.35907-.3091-1.92434-.87465-1.87135-1.86432.05436-1.01518.8231-1.68217,2.10752-1.82858a1.706,1.706,0,0,0,1.21569-.00375,2.22767,2.22767,0,0,1,2.1347,2.02559c-.38634.17723-.80886-.02385-1.19892.11455a1.89685,1.89685,0,0,0-2.40261-.82858c-.24135.11011-.52506.23275-.516.54824.00831.28989.2899.36819.51353.46336a6.40368,6.40368,0,0,0,1.36868.30173c1.70159.31787,2.36425.9875,2.25255,2.27291-.11019,1.26818-1.08212,2.01217-2.67835,2.0502a1.14335,1.14335,0,0,0-.45813-.005c-1.46212-.22118-2.22184-.88894-2.38234-2.094a1.32564,1.32564,0,0,1,1.22117-.13252l.02366.02884-.022.03015C27.44156,57.3783,27.49985,57.43547,27.52993,57.50531Z"/>
      <path class="cls-3" d="M38.432,56.56388a2.94077,2.94077,0,0,1-2.81673,2.78647,7.846,7.846,0,0,1-.7975.0451c-.3943-.09134-.996.20153-1.031-.56353-.00315-.06875-.10433.08685-.16847.01144-.46095-1.97351-.91626-3.94837-1.38835-5.91922-.07981-.33316.01016-.39033.33805-.4272.66947-.0753.96342.12042,1.08765.836.24743,1.42529.6416,2.82451.9384,4.24218.0942.4499.29249.57352.728.51115A1.94776,1.94776,0,0,0,37.13551,56.261a2.02749,2.02749,0,0,0-1.546-2.33434c-.21464-.05612-.43508-.0901-.65284-.13429a2.64491,2.64491,0,0,1,.01066-1.23752,3.11938,3.11938,0,0,1,3.4836,3.07291A1.4405,1.4405,0,0,0,38.432,56.56388Z"/>
      <path class="cls-2" d="M105.1482,59.51321a3.20977,3.20977,0,0,1-3.529-2.33721,3.70148,3.70148,0,0,1,1.46332-4.233,1.46042,1.46042,0,0,1,2.09632.15656c.19873.171.30255.10876.43188-.04871.67229-.81857,1.52979-.491,2.35243-.37862a.75211.75211,0,0,0-.12264.33849c-.02026,1.69151-.003,3.38274-.00868,5.07392-.00059.178-.00408.35614-.00045.53405.007.34595-.05734.64021-.49372.62289-.39473-.01567-.442-.2993-.44316-.61272-.00551-1.44645.00423-2.89291-.00494-4.33795a.31821.31821,0,0,0-.13194-.282c-.5012-.0661-.62615.40163-.85907.66181-.36631.40921-.58825.57236-.96616-.00345-.20158-.30713-.32772-.87056-.89443-.73832a1.56127,1.56127,0,0,0-1.11233,1.06763,2.98054,2.98054,0,0,0,.00549,2.15837c.40509,1.01285,1.31949,1.07265,2.226,1.12211a.24808.24808,0,0,1,.05883.16871,1.43654,1.43654,0,0,0-.00295.9009A.23532.23532,0,0,1,105.1482,59.51321Z"/>
      <path class="cls-2" d="M58.30127,52.53985c.06644-.00736.13275-.01978.19932-.02129.86757-.01963.86778-.01924.868.82615.00028,1.11611-.00674,2.23227.00241,3.34831a1.3674,1.3674,0,0,0,1.48888,1.50314,1.39327,1.39327,0,0,0,1.54069-1.47c.01929-1.89719.0052-3.79471.00843-5.69209a2.11876,2.11876,0,0,1,.04964-.3237.45211.45211,0,0,1,.11018.238c.01925,1.80725.09549,3.615-.03744,5.41286.14181-1.82962.04541-3.653.0482-5.47587a.24874.24874,0,0,1,.01957-.21846c1.08766-.0774,1.0877-.0774,1.08766.972-.00007,1.76548.004,3.531-.0017,5.29643a2.31154,2.31154,0,0,1-1.89264,2.41541,3.286,3.286,0,0,1-2.86984-.50335,1.75536,1.75536,0,0,1-.76567-1.2072c.17439-1.52768.038-3.06049.07525-4.59045C58.2364,52.87681,58.16132,52.69411,58.30127,52.53985Z"/>
      <path class="cls-2" d="M97.08768,59.40692a2.53766,2.53766,0,0,1-1.99152-1.77649c-.1313-.33138-.03605-.4384.31022-.42032.47352.02471.88078-.05137,1.22491.51826a1.46461,1.46461,0,0,0,2.56365-.29312,3.39454,3.39454,0,0,0-.01368-2.86077,1.32626,1.32626,0,0,0-1.25812-.85213,1.50528,1.50528,0,0,0-1.45495.77176,1.319,1.319,0,0,1-1.3156.40642c-.22526-.12543-.10925-.31779-.05452-.47141a2.61057,2.61057,0,0,1,2.14741-1.87729,2.7393,2.7393,0,0,1,2.81271.99345,4.68383,4.68383,0,0,1,.16168,4.70729,2.36409,2.36409,0,0,1-1.64586,1.144A2.39977,2.39977,0,0,0,97.08768,59.40692Z"/>
      <path class="cls-2" d="M81.92492,52.54745c1.09118-.08073,1.09122-.08073,1.09125.96754,0,1.36256.0142,2.72535-.0083,4.08753-.00711.43055.11963.557.53982.45327A4.88885,4.88885,0,0,0,85.61813,57.012,1.29156,1.29156,0,0,0,86.093,55.9573c-.01306-1.04926.00666-2.09892.01314-3.14842.06134-.07934.03842-.195.11548-.26757l1.07175.00185c.11472.11362.03142.27768.10261.40238q-.00007,3.08241-.00014,6.16483c-.04351.09122-.02823.20119-.09133.28616-1.112.1024-1.112.1024-1.28661-1.13269a5.90252,5.90252,0,0,1-4.08983,1.12428.25856.25856,0,0,1-.02073-.23413c.02858-2.08592.0373-4.17183-.00486-6.25765A.358.358,0,0,1,81.92492,52.54745Z"/>
      <path class="cls-2" d="M43.40039,59.3927a2.63574,2.63574,0,0,1-.93415.00251.23161.23161,0,0,1-.02511-.23146c.04111-2.12586.02579-4.25182.00761-6.37776a.33059.33059,0,0,1,.0125-.23813l.94345.00032a.27032.27032,0,0,1,.041.26547,4.104,4.104,0,0,0-.01594,1.1922.48441.48441,0,0,0,.11184.14138c.44171-.112.697-.50212,1.073-.71761a4.72943,4.72943,0,0,1,2.14079-.76949c.19929.0943.197.08785.56012-.04267.11909-.04281.26441.02242.38039-.0667l.13318-.00362c.11792.1097.028.27622.10839.39617q.00951,3.04709.02086,6.09418c.00119.24957-.00044.47114-.3543.35409.113-.14383.01566-.215-.10406-.20026-.53259.06568-.55036-.24655-.54529-.6502.018-1.437.002-2.87434.007-3.7808.04211,1.18942-.07293,2.91085.04421,4.63038l-.25467.00613c-.05887-.08589-.05191-.19458-.09868-.28466-.00712-1.563-.04122-3.12666-.008-4.68884.01315-.61767-.22019-.613-.6564-.41664a5.02649,5.02649,0,0,0-2.42644,2.29859.35089.35089,0,0,0-.13332.163c-.04588.907-.04263,1.81378-.00121,2.72072A.18149.18149,0,0,1,43.40039,59.3927Z"/>
      <path class="cls-2" d="M20.45221,52.85246a4.55051,4.55051,0,0,1,3.70116-.04074,1.96841,1.96841,0,0,1,1.29653,1.8644c.02382,1.45.00511,2.90075.027,4.35084.00916.60626-.4247.36774-.70233.39552-.29928.02995-.61916.09495-.60536-.42631.03188-1.20421.01147-2.40985.00937-3.61491-.002-1.12211-.44562-1.58328-1.56363-1.61586a5.98673,5.98673,0,0,0-.6668.04075c-.5964.04962-.88.28291-.84459.97229.06852,1.33544.02619,2.67694.01315,4.01577-.00194.19925.129.4487-.13044.59972-.03306-.04624-.06963-.09125-.13193-.08916-.01884.00063-.02488.04283-.01941.08821l-.1658-.00923c.01562-.016.03171-.03159.04674-.04813.01393-.01535.02674-.03173.04005-.04765-.88663-.01063-.77372-.65668-.77491-1.22448-.00274-1.31927.01014-2.6387-.00655-3.95775A1.40191,1.40191,0,0,1,20.45221,52.85246Z"/>
      <path class="cls-2" d="M89.0399,52.5404l.93911.01051a31.52049,31.52049,0,0,1,.0665,3.1591,7.93651,7.93651,0,0,0,.03753,1.25157,1.45848,1.45848,0,0,0,2.69218.52661,1.597,1.597,0,0,0,.14372-.84174c-.00122-.46694.00216-.9339.00361-1.40084a2.9855,2.9855,0,0,0-.79618-.96407c-.51-.53679-.51751-.65.00528-1.20158a3.27113,3.27113,0,0,0,.39953-.52666l1.47584-.01211a.16533.16533,0,0,1,.07133.184l-.01666.01565a1.21209,1.21209,0,0,0-.67118.65226l-.002-.00567c-.12528-.01639-.15759.05911-.16122.163l-.02.18213c.95434.854.9226,1.97793.862,3.11431a1.998,1.998,0,0,0,.0701.79051,2.54835,2.54835,0,0,1-2.82156,1.82668,2.41061,2.41061,0,0,1-2.44119-1.95325,4.37862,4.37862,0,0,0,.0965-1.45456C89.02458,54.885,88.889,53.71,89.0399,52.5404Z"/>
      <path class="cls-2" d="M79.236,54.81828a2.16012,2.16012,0,0,0-2.9088-.83806c-.24241.16138-.17647.38855-.17733.599-.00575,1.40193.00285,2.804-.00975,4.20579-.00179.2002.12716.44491-.118.60443-.97726-.19915-1.00153-.22474-1.00409-1.2193q-.00517-2.00766.00017-4.01533c.00312-1.01182.12722-1.16854,1.128-1.40408a.81654.81654,0,0,0,.41139-.19819,3.91972,3.91972,0,0,1,3.01622.48261,1.43764,1.43764,0,0,1,.74153.97991c.01119,1.73273-.02784,3.46563.01778,5.19887a.13076.13076,0,0,1-.01481.18088,2.26183,2.26183,0,0,1-.94624-.00159.20178.20178,0,0,1-.02153-.21233c.056-1.375.01419-2.75077.02139-4.12495A.24863.24863,0,0,0,79.236,54.81828Z"/>
      <path class="cls-2" d="M39.50842,52.54887c1.08417-.08456,1.08419-.08456,1.0842.96238,0,1.37729-.00337,2.75459.00407,4.13183.001.17717-.10148.45695.206.4736.87384.04734.39316.69341.42367,1.04245.04189.47928-.41768.235-.65115.25847a8.09245,8.09245,0,0,1-1.06215-.02252.23231.23231,0,0,1-.0249-.2315c.0412-2.12544.02536-4.251.00787-6.3765A.33428.33428,0,0,1,39.50842,52.54887Z"/>
      <path class="cls-3" d="M88.91228,50.13764c1.15614-.0078,2.31228-.01743,3.46844-.0221.29145-.00118.60582.05781.5518-.41383-.02353-.2053.13161-.26989.30631-.246.31941.0436.6622-.12437.96048.105-.24525.37049-.0243.76548-.04508,1.14793-.025.45928-.1935.632-.64817.627-1.20467-.01337-2.40965-.00381-3.61451-.00463-.96025-.00066-.96025-.00217-.99578-.943A.37446.37446,0,0,1,88.91228,50.13764Z"/>
      <path class="cls-3" d="M95.42537,51.38667a.93988.93988,0,0,1-.08484-.2409c-.06639-1.03229-.06472-1.03609.98079-1.03142,1.28945.00576,2.57887.01847,3.86829.02817a1.80852,1.80852,0,0,1-.03075,1.10757,15.756,15.756,0,0,1-2.52991.08014A19.51,19.51,0,0,0,95.42537,51.38667Z"/>
      <path class="cls-2" d="M81.24425,51.42918l-3.20019.00032a.60416.60416,0,0,1-.15737-.0919c-.0077-.48692-.01346-.97388-.02392-1.46074-.005-.23338.00209-.51725.32444-.40285.31215.11079.86271-.387.93153.31775.03232.33118.20946.31527.44331.3313a6.47269,6.47269,0,0,1,1.89577.103c-.05135.06483.029.12491.00681.18869l.00173.75863a.22577.22577,0,0,1-.0778.20447A.74886.74886,0,0,1,81.24425,51.42918Z"/>
      <path class="cls-2" d="M71.31661,53.60516c.28776-.00545.57551-.01352.8633-.01517.13274-.00076.31392.00626.30278.17276-.04307.64339.41982.5185.75821.48075.53365-.05953.63067.17517.6097.64453-.01839.41153.00585.73735-.57616.68128-.527-.05076-1.06286-.00288-1.59444-.01512-.17775-.0041-.41966.09745-.487-.19812A4.90673,4.90673,0,0,1,71.31661,53.60516Z"/>
      <path class="cls-3" d="M76.55768,52.55255c.01563.28018-.09471.38065-.395.38339-.68975.0063-.94729.28218-.94826.9426-.00216,1.45281.016,2.90592-.00973,4.35828-.00894.5056-.01391.9312.64933.95716.05853.00229.11224.1274.16819.19547-1.20641.157-1.20647.157-1.20648-1.02566,0-1.53314.02789-3.06705-.0147-4.599-.01539-.55328.16366-.83411.69093-.91736a.10812.10812,0,0,0,.12438-.04016A1.77047,1.77047,0,0,1,76.55768,52.55255Z"/>
      <path class="cls-3" d="M28.65139,60.85836a5.133,5.133,0,0,1,1.56119-.08688c.288-.02508.31743.18863.32.39482.007.55459-.00868,1.10968.00824,1.66385.00884.28972-.13862.32924-.37027.31316-.243-.01686-.48694-.0194-.73047-.02821-.21756-.26052.003-.554-.061-.82738-.02006-.08561.01962.021-.00206-.06462-.0148-.05847-.06045-.05564-.08932-.00355-.00646-.33839-.20417-.4508-.51207-.433C28.59012,61.49642,28.79925,61.15352,28.65139,60.85836Z"/>
      <path class="cls-3" d="M72.51653,57.1363a4.2079,4.2079,0,0,0,.6681.01767c.51187-.06491.67933.09961.684.64747.00488.57559-.168.73336-.71475.68172a10.28452,10.28452,0,0,0-1.53991-.00293c-.36529.02058-.47405-.11607-.437-.46041a2.76668,2.76668,0,0,0-.00148-.73523c-.106-.64533.13186-.841.78619-.80937.50747.02453.6175.20429.54016.636a.31028.31028,0,0,1-.31021.06546c-.226-.0684-.40244-.05925-.41341.23739-.00937.2533-.00877.52168.32354.55786a2.14151,2.14151,0,0,0,1.05976-.06121C73.08452,57.50885,72.224,57.79591,72.51653,57.1363Z"/>
      <path class="cls-3" d="M20.45221,52.85246a3.12762,3.12762,0,0,0-.27124,1.78747q-.006,1.83506,0,3.67013c.001.38183-.11762.83535.51185.86219.08267.00352.04427.14208-.02278.21056a.3691.3691,0,0,1-.3502.01588c-.09065-.10012-.18016-.10748-.26818.00334-.31084.07682-.25555-.15276-.2558-.31717-.00281-1.87038.00328-3.7408-.00705-5.61113-.00165-.30008.10394-.463.39762-.50467a.08442.08442,0,0,0,.12259-.04142Z"/>
      <path class="cls-3" d="M58.30127,52.53985a21.01312,21.01312,0,0,1,.13187,3.72192c.01559.311.00025.62346.00283.93522.00173.20933,0,.41234-.279.44324a21.91549,21.91549,0,0,1-.10237-3.44354c-.01967-.46491-.00318-.93133-.00371-1.39706C58.05067,52.63168,58.057,52.47164,58.30127,52.53985Z"/>
      <path class="cls-3" d="M89.0399,52.5404a32.31372,32.31372,0,0,1,.129,4.67229c.0077.19327-.11754.27437-.29229.29812-.16723-1.60979-.0332-3.22408-.0685-4.83589C88.80509,52.53833,88.90926,52.49417,89.0399,52.5404Z"/>
      <path class="cls-2" d="M88.91626,50.26c.31421.93652.31421.93653,1.40651.93652.99951,0,2.00051-.03266,2.998.01253.57591.02609.731-.18537.69836-.72339-.01851-.30526-.16225-.67427.18009-.92483a7.1074,7.1074,0,0,1,.02566,1.64163q-.0083.06022-.01608.12053c-.02924.03114-.05825.08931-.08775.08956-1.75346.01491-3.5074.08767-5.25992-.03472A2.83218,2.83218,0,0,1,88.91626,50.26Z"/>
      <path class="cls-4" d="M106.75767,54.00885l.1307-.1278a32.675,32.675,0,0,1,.06707,3.45811c.01443.44488.00842.89073.00019,1.33593-.00531.28735-.00813.51718.40155.51818.40035.001.41439-.2096.41323-.508q-.01006-2.57184-.00055-5.14373a1.74373,1.74373,0,0,1,.05146-.72545l.14189-.14383c.01024,2.12.015,4.24017.03671,6.36011.00322.31584-.08661.45092-.41252.42228-.22153-.01946-.44639-.00107-.66976.00039a.19389.19389,0,0,1-.16027-.0707Z"/>
      <path class="cls-3" d="M94.13933,57.63738c-.28517-.03531-.26675-.249-.2666-.45251.00031-.40178.00142-.80356-.00037-1.20532-.00293-.65868.12739-1.35446-.56073-1.8087-.13887-.09167-.1119-.281-.10436-.43829C94.74177,54.74231,94.21338,56.244,94.13933,57.63738Z"/>
      <path class="cls-2" d="M95.42537,51.38667c.19405-.265.48087-.18624.73812-.18745,1.33446-.00627,2.669-.00352,4.00346-.00392a.14383.14383,0,0,1,.07017.14587l-.05952.06563c-1.52472.03776-3.0494.05868-4.57386-.01118a.4168.4168,0,0,0-.15516-.00816Z"/>
      <path class="cls-3" d="M92.53118,52.5533c.04521.33952-.18789.53132-.40327.71772-.33051.286-.28957.516-.0019.8286.313.34012.85214.54471.79654,1.146q-.67469-.64432-1.34986-1.28813c-.152-.14426-.30226-.27749-.06361-.478C91.86118,53.18363,92.09505,52.7571,92.53118,52.5533Z"/>
      <path class="cls-4" d="M39.52,59.23956l-.007.15552c-.29143-.03019-.18993-.26111-.19046-.41206q-.01068-3.00987.00023-6.01978c.00056-.14963-.105-.38066.18565-.41437q.00162.06477.00724.12931a23.81269,23.81269,0,0,1,.05142,3.04724A34.37847,34.37847,0,0,1,39.52,59.23956Z"/>
      <path class="cls-4" d="M42.46124,52.54786q.00255.066.0084.13175a26.00372,26.00372,0,0,1,.05029,3.17938,31.30152,31.30152,0,0,1-.04647,3.38009l-.00724.15613c-.24671-.02517-.175-.22033-.17532-.35652q-.007-3.06606.00026-6.13213C42.2915,52.77249,42.21369,52.57567,42.46124,52.54786Z"/>
      <path class="cls-5" d="M81.92492,52.54745l.0058.26314a21.3787,21.3787,0,0,1,.05305,2.915,33.56914,33.56914,0,0,1-.04931,3.51495l-.00639.14761c-.28705-.03953-.1795-.26879-.18008-.41795q-.01153-3.00123.00013-6.00251C81.7487,52.81875,81.63972,52.59033,81.92492,52.54745Z"/>
      <path class="cls-4" d="M62.59576,57.10128c-.20374-.20537-.11521-.46521-.11676-.7006-.01248-1.89681-.01477-3.7937-.02027-5.69045l.14037-.04333.011.13825C62.68709,52.90405,62.71359,55.00283,62.59576,57.10128Z"/>
      <path class="cls-3" d="M80.30661,59.24526c-.09758-.01905-.28843.038-.26419-.10525a22.24581,22.24581,0,0,0,.06-4.86948c-.00931-.18422.064-.23528.213-.25546a.46472.46472,0,0,1,.126.405c-.13621,1.36884-.021,2.74146-.06421,4.11158C80.36971,58.76971,80.44845,59.01952,80.30661,59.24526Z"/>
      <path class="cls-3" d="M47.00593,59.3907a3.834,3.834,0,0,1-.10739-1.52284,32.60861,32.60861,0,0,1,.12691-3.81345v2.04281c0,.75937.00511,1.51878-.00213,2.27807-.00368.38645-.04983.77843.52123.79181.09.00211.087.13424.05975.224Q47.30486,59.39137,47.00593,59.3907Z"/>
      <path class="cls-5" d="M80.30661,59.24526c.00295-1.37734.00145-2.75472.01317-4.132.002-.233-.09344-.49355.12165-.69317q.02106,2.36883.04162,4.73768c.001.1153-.01714.22237-.16464.237Z"/>
      <path class="cls-5" d="M79.236,54.81828l.14107-.132a34.04256,34.04256,0,0,1,.004,4.557l-.009.15c-.22921-.05574-.14793-.24513-.148-.38074C79.22312,57.61442,79.23079,56.21635,79.236,54.81828Z"/>
      <path class="cls-3" d="M90.083,56.96158a5.29939,5.29939,0,0,1-.09758-1.82731c-.03011-.86015-.00689-1.72216-.00646-2.58336.17974.05922.125.21362.12464.33422Q90.09791,54.92336,90.083,56.96158Z"/>
      <path class="cls-3" d="M97.08768,59.40692a1.03676,1.03676,0,0,1,1.48633-.01036A2.5442,2.5442,0,0,1,97.08768,59.40692Z"/>
      <path class="cls-3" d="M66.753,59.40217a.74335.74335,0,0,1,1.22007.00846A2.10923,2.10923,0,0,1,66.753,59.40217Z"/>
      <path class="cls-2" d="M33.61833,58.84336l.265-.4049c-.22552,1.00723.60307.66873.93445.957C34.32549,59.41217,33.6662,59.79135,33.61833,58.84336Z"/>
      <path class="cls-3" d="M29.58051,52.52175a.75941.75941,0,0,1-1.21569.00375A1.9059,1.9059,0,0,1,29.58051,52.52175Z"/>
      <path class="cls-6" d="M71.31661,53.60516c-.08755.58037.11447,1.18117-.12365,1.75091C71.17625,54.76834,70.93023,54.16444,71.31661,53.60516Z"/>
      <path class="cls-3" d="M67.97,52.52289c-.19916.51819-.63932.22637-.97007.27161-.22064.03017-.12239-.1691-.11252-.28651A1.632,1.632,0,0,1,67.97,52.52289Z"/>
      <path class="cls-5" d="M43.40039,59.3927l-.00393-.14959a14.10727,14.10727,0,0,1,.00693-2.94727l.15839.00942c-.00412.8371.00173,1.67444-.01985,2.51108C43.537,59.0081,43.68582,59.26157,43.40039,59.3927Z"/>
      <path class="cls-3" d="M47.69592,52.55076c-.07057.17557-.32853.03061-.38737.22626l.24421.07292c-.25733-.09818-.6757.45023-.79735-.18981A1.61654,1.61654,0,0,1,47.69592,52.55076Z"/>
      <path class="cls-3" d="M93.39051,53.39315c.00117-.4461.21112-.6777.6711-.65238A2.61275,2.61275,0,0,1,93.39051,53.39315Z"/>
      <path class="cls-5" d="M27.43478,57.23826a3.01737,3.01737,0,0,0-1.22117.13253c-.036-.08045-.07477-.22443.00226-.23C26.62461,57.11115,27.051,56.94515,27.43478,57.23826Z"/>
      <path class="cls-5" d="M43.54158,54.14723l-.13622.00226A2.8298,2.8298,0,0,1,43.4,52.80833l.00465-.26015C43.73045,53.05724,43.46716,53.61668,43.54158,54.14723Z"/>
      <path class="cls-5" d="M65.90688,57.49153c-.41108-.358-.90762-.247-1.383-.25172C65.121,56.92835,65.72275,57.03783,65.90688,57.49153Z"/>
      <path class="cls-4" d="M29.28771,62.21955l.07349-.30262c.14038.21367.066.41764.07821.60449.0129.19707.00146.39573.00068.59369l-.127-.02455a.32865.32865,0,0,1-.02506-.37628Z"/>
      <path class="cls-5" d="M30.51629,54.66189c.38175-.22549.80191-.04892,1.19893-.11448C31.34574,54.901,30.92472,54.71561,30.51629,54.66189Z"/>
      <path class="cls-7" d="M88.91626,50.26q-.02752.55881-.0551,1.11773a1.46591,1.46591,0,0,1,.05113-1.24007A.43923.43923,0,0,0,88.91626,50.26Z"/>
      <path class="cls-4" d="M34.94734,52.55482q-.00535.61876-.01069,1.23752A1.07945,1.07945,0,0,1,34.94734,52.55482Z"/>
      <path class="cls-4" d="M100.18709,51.3197q-.01151-.06193-.02-.12438.01107-.52641.02246-1.05279l.1187.03417.01982.08848a3.65467,3.65467,0,0,1-.01977,1.07047A.07179.07179,0,0,1,100.18709,51.3197Z"/>
      <path class="cls-4" d="M105.1482,59.51321l-.00667-.136a1.66288,1.66288,0,0,1-.006-.92557l.02162-.17469.13021.05882a.227.227,0,0,1,.014.26747l0,.483a.35965.35965,0,0,1-.01986.38659Z"/>
      <path class="cls-8" d="M54.95142,56.83518c-.04076.16626.0992.45973-.17473.45712-.16953-.00161-.1016-.28447-.12216-.4458Z"/>
      <path class="cls-4" d="M28.65139,60.85836c.238.28313.07015.62047.12417.92819l-.14349-.04026a.16579.16579,0,0,1-.01089-.227l-.00155-.5177a.08307.08307,0,0,1,.019-.12325Z"/>
      <path class="cls-4" d="M38.432,56.56388a.77973.77973,0,0,1-.00109-.93616Z"/>
      <path class="cls-3" d="M94.07835,52.72524l-.07134-.184c.08886-.04354.17885-.05257.20438.062C94.21793,52.63254,94.12538,52.684,94.07835,52.72524Z"/>
      <path class="cls-3" d="M29.288,62.71428l.0251.37631C29.185,62.9731,29.23754,62.84362,29.288,62.71428Z"/>
      <path class="cls-9" d="M28.596,59.46474a.3921.3921,0,0,1,.4581.005A.52442.52442,0,0,1,28.596,59.46474Z"/>
      <path class="cls-2" d="M105.2816,59.47284l.01983-.3867C105.35239,59.21806,105.40056,59.34974,105.2816,59.47284Z"/>
      <path class="cls-10" d="M47.93749,52.94331c-.13248-.10572-.09491-.25793-.10839-.39617C48.0748,52.62191,47.95586,52.79635,47.93749,52.94331Z"/>
      <path class="cls-11" d="M87.396,52.94554c-.12973-.10979-.088-.26325-.10261-.40238C87.52908,52.626,87.42242,52.796,87.396,52.94554Z"/>
      <path class="cls-10" d="M86.22164,52.54131l-.11548.26757C86.0706,52.68776,86.031,52.56491,86.22164,52.54131Z"/>
      <path class="cls-3" d="M28.62118,61.51924q.0056.11367.011.2272C28.544,61.67465,28.57641,61.59724,28.62118,61.51924Z"/>
      <path class="cls-12" d="M81.3855,51.32979l.08088-.15637c.064.1184.0603.217-.0807.27551q-.04723-.03965-.03157-.07938T81.3855,51.32979Z"/>
      <path class="cls-2" d="M20.05165,59.402c.08733-.16611.17694-.14979.26818-.00335Z"/>
      <path class="cls-11" d="M87.30453,59.39653l.09133-.28616C87.43707,59.2286,87.47729,59.34653,87.30453,59.39653Z"/>
      <path class="cls-10" d="M46.65258,59.11217l.09869.28465C46.5693,59.35357,46.61351,59.232,46.65258,59.11217Z"/>
      <path class="cls-2" d="M105.30145,58.60329l-.01415-.26764C105.39118,58.41977,105.353,58.51118,105.30145,58.60329Z"/>
      <path class="cls-7" d="M81.3855,51.32979a1.17583,1.17583,0,0,1,.00018.11919l-.14141-.01978Z"/>
      <path class="cls-5" d="M27.52993,57.50531l-.0933-.20781Z"/>
      <path class="cls-2" d="M75.61633,52.80726c-.02455.06573-.06061.09581-.12438.04016Z"/>
      <path class="cls-3" d="M100.32807,50.26518a.08617.08617,0,0,1-.01984-.08849.54982.54982,0,0,1,.04948.05737Z"/>
      <path class="cls-2" d="M20.309,52.92764c-.0214.07136-.05493.10686-.1226.04142Z"/>
      <path class="cls-3" d="M95.44858,51.38746l.15521.00817Z"/>
      <path class="cls-3" d="M20.83493,59.393c.051-.09154.1013-.06421.15134.00095Z"/>
      <path class="cls-3" d="M100.18709,51.3197q.06025.01089.12126.01585c-.00567.09344-.04909.11744-.13076.07126A.303.303,0,0,1,100.18709,51.3197Z"/>
      <path class="cls-13" d="M106.75737,59.38431l.16024.07074C106.82975,59.50951,106.77555,59.4877,106.75737,59.38431Z"/>
      <path class="cls-3" d="M93.2273,53.55043a.15662.15662,0,0,1,.161-.163Q93.308,53.469,93.2273,53.55043Z"/>
      <path class="cls-3" d="M28.63863,60.87829a.17977.17977,0,0,1-.019.12347.65945.65945,0,0,1-.02394-.0976C28.595,60.89717,28.62356,60.887,28.63863,60.87829Z"/>
      <path class="cls-12" d="M81.46463,50.41475a.13018.13018,0,0,1-.00688-.18866Z"/>
      <path class="cls-3" d="M94.20877,51.323a.4732.4732,0,0,1-.02061-.08859c-.00056-.00994.02375-.02126.03669-.03194Z"/>
      <path class="cls-7" d="M77.88669,51.33759l.15735.09193C77.94808,51.47332,77.89923,51.43652,77.88669,51.33759Z"/>
      <path class="cls-14" d="M6.67077,58.93113c-.339-1.61784-.65929-3.23473-1.93469-4.45852a9.56433,9.56433,0,0,1-.91938-1.23407,1.9114,1.9114,0,0,1-.0376-2.36126A44.98483,44.98483,0,0,1,7.08244,46.572c.563-.69938.57958-.68667,1.15005.01535,1.01473,1.24873,2.04873,2.48278,2.96425,3.80831.95446,1.38191.94045,1.97262-.06406,3.31925a4.94752,4.94752,0,0,1-.46059.57552A8.15245,8.15245,0,0,0,8.621,58.93664c.26117-.00116.32955-.20982.4414-.34586q1.76742-2.14973,3.52928-4.304c.12216-.1485.21858-.38832.45231-.34493.25144.04668.327.30721.375.5139a3.72717,3.72717,0,0,1-1.21269,3.76116,28.591,28.591,0,0,1-4.27156,3.00632.44125.44125,0,0,1-.54832.02344,28.65946,28.65946,0,0,1-4.5064-3.2468,3.662,3.662,0,0,1-1.04321-3.38114c.04358-.25867.09216-.581.37783-.66785.30108-.09157.38676.24344.53288.41793Q4.682,56.679,6.60166,59.00164,6.6973,59.02621,6.67077,58.93113Z"/>
      <path class="cls-15" d="M13.84382,54.83246v.75679l-.05845.00686v-.73834Z"/>
      <path class="cls-15" d="M14.96925,55.73937V54.985l.06585-.00454v.74947Z"/>
      <ellipse class="cls-3" cx="28.97237" cy="59.18026" rx="0.65945" ry="0.04597"/>
      <path class="cls-3" d="M107.82132,52.81606q.0051,2.93979.01233,5.87956c.00122.31281-.00058.55877-.43948.56653-.44484.00786-.50867-.19946-.50613-.5704.011-1.60349.0021-3.20711.00038-4.81069.22612.19393.13314.45689.13464.69029.00859,1.33664.00273,2.67337.00577,4.01006.00053.23744-.055.52153.32805.52613.38019.00456.33986-.272.34009-.5148.00161-1.69315-.00268-3.38632.0053-5.07944C107.70338,53.27911,107.61166,53.01869,107.82132,52.81606Z"/>
      <path class="cls-3" d="M105.13557,58.45169q.003.46284.006.92563A.81585.81585,0,0,1,105.13557,58.45169Z"/>
      <path class="cls-3" d="M62.59576,57.10128q.00708-3.14818.01426-6.29626c.14078.11444.12114.27485.12118.42825q.00081,2.68988-.00064,5.37975C62.73041,56.78636,62.76466,56.97287,62.59576,57.10128Z"/>
      <ellipse class="cls-3" cx="59.04328" cy="55.00837" rx="0.03664" ry="2.91089"/>
      <path class="cls-3" d="M87.159,52.981c0,1.93547-.00746,3.871.00479,5.80639.00343.54156-.31538.47494-.6902.39542.54018-.01027.5659-.33438.56167-.74919-.01859-1.82264-.008-3.64558-.008-5.46841Z"/>
      <path class="cls-3" d="M81.93446,59.24052q-.00192-3.215-.00379-6.43c.14363.111.12925.27054.12928.42475q.00056,2.78961.00005,5.57921C82.06,58.96821,82.07757,59.12837,81.93446,59.24052Z"/>
      <ellipse class="cls-3" cx="82.80267" cy="55.41803" rx="0.04487" ry="3.48383"/>
      <path class="cls-3" d="M86.38681,55.73229V53.35748l.06613-.00087v2.36217Z"/>
      <path class="cls-3" d="M42.47346,59.23908q-.002-3.27983-.00388-6.55956c.14408.11342.12687.27481.1269.43013q.00056,2.849-.00015,5.698C42.59627,58.96231,42.61718,59.12458,42.47346,59.23908Z"/>
      <path class="cls-3" d="M43.40339,56.29584q-.00342,1.47369-.00688,2.94733A6.69515,6.69515,0,0,1,43.40339,56.29584Z"/>
      <path class="cls-3" d="M43.4,52.80833q.00264.67058.0053,1.34115A1.49723,1.49723,0,0,1,43.4,52.80833Z"/>
      <path class="cls-3" d="M25.18072,59.08041V54.55755l.06626.00008v4.5262Z"/>
      <path class="cls-3" d="M24.45711,54.7308v4.33847l-.06677.00086V54.70437Z"/>
      <ellipse class="cls-3" cx="89.78293" cy="54.94866" rx="0.04373" ry="2.82056"/>
      <path class="cls-3" d="M79.38113,59.24325l-.004-4.557c.186.151.13032.36281.131.55487q.006,1.72293-.00018,3.44588C79.50717,58.8787,79.56573,59.09065,79.38113,59.24325Z"/>
      <path class="cls-3" d="M39.52,59.23956q-.00223-3.28075-.00441-6.56145c.14422.11313.128.27436.128.4299q.00046,2.85009-.00018,5.70019C39.64337,58.96294,39.664,59.12523,39.52,59.23956Z"/>
      <path class="cls-3" d="M81.151,50.37181c.24221.6798-.01293.88351-.63929.8343a10.686,10.686,0,0,0-1.73735.00107c-.58549.04991-.83669-.13684-.7441-.73787a4.51369,4.51369,0,0,0,.00465-.63851c.07585.06953.11984.09047.12118.11386.06457,1.119.06414,1.119,1.22766,1.119.33443,0,.67043-.02063,1.0029.00487C80.874,51.106,81.257,51.05318,81.151,50.37181Z"/>
      <path class="cls-3" d="M73.51812,54.45852a.9035.9035,0,0,1,0,.74086Z"/>
      <path class="cls-2" d="M72.51653,57.1363c-.00467.34537.21812.38073.489.36964.22717-.0093.45572-.01034.45935.321.00412.37541-.25857.34557-.50373.347-.28746.0017-.57589-.0144-.86217.00406-.35993.02321-.507-.1025-.51814-.48593-.02591-.89272-.01426-.91193.921-.58088Z"/>
      <path class="cls-2" d="M9.347,53.55622c-.4717,2.15906-.986,4.30751-1.60208,6.43061a.39173.39173,0,0,1-.26664-.19822L5.86019,53.36236c.3566-.28406.77485-.1419,1.16139-.14192a7.39672,7.39672,0,0,1,2.17777.11576C9.33577,53.37713,9.3859,53.42308,9.347,53.55622Z"/>
      <path class="cls-2" d="M7.29686,52.52873a1.22969,1.22969,0,0,1-.949-1.45065,1.31408,1.31408,0,0,1,2.58736.024,1.23425,1.23425,0,0,1-.97293,1.436.5414.5414,0,0,0-.12724-.10345.7573.7573,0,0,0-.40611-.00309A.66252.66252,0,0,0,7.29686,52.52873Z"/>
      <path class="cls-3" d="M9.347,53.55622c-1.14226-.42411-2.32429-.13345-3.4868-.19385a.75151.75151,0,0,1-.04756-.09787c-.00506-.0152.00694-.03607.0112-.05436a20.37066,20.37066,0,0,1,3.62523.00134Z"/>
      <path class="cls-2" d="M9.44907,53.21148l-3.62523-.00135c-.00535-.15088.09538-.18008.21394-.18019q1.59894-.00155,3.19788-.00037C9.35682,53.02962,9.453,53.0629,9.44907,53.21148Z"/>
      <path class="cls-5" d="M7.47828,59.78861a.32139.32139,0,0,1,.26661.19823.56237.56237,0,0,1-.15046.44772Z"/>
      <path class="cls-5" d="M7.29686,52.52873a.796.796,0,0,0-.00265-.11263.70074.70074,0,0,1,.671-.005q-.00378.06344-.00289.127A.9.9,0,0,1,7.29686,52.52873Z"/>
      <path class="cls-1" d="M6.67077,58.93113c.01509.05089.05361.139.04146.14661-.07616.04792-.08863-.02621-.11054-.07614Z"/>
      <polygon class="cls-16" points="8.57 59.139 8.582 59.177 8.552 59.175 8.57 59.139"/>
      <path class="cls-3" d="M6.1863,53.63575c-.01665.00469-.04409.01758-.04793.01254a.17371.17371,0,0,1-.01891-.05607c.0167-.00469.04418-.0176.048-.01252A.17213.17213,0,0,1,6.1863,53.63575Z"/>
      <path class="cls-3" d="M7.96522,52.4111q-.33551.00237-.671.00487A.43689.43689,0,0,1,7.96522,52.4111Z"/>
    </g>
    <rect class="cls-17" y="-0.5" width="108" height="108"/>
  </g>
</svg>
