<svg width="24" height="25" viewBox="0 0 24 25" fill="none" xmlns="http://www.w3.org/2000/svg">
<g id="line">
<g id="LINE LOGO">
<path id="Subtract" fill-rule="evenodd" clip-rule="evenodd" d="M7.05787 3.4375H16.9421C19.1832 3.4375 21 5.25427 21 7.49537V17.3796C21 19.6207 19.1832 21.4375 16.9421 21.4375H7.05787C4.81677 21.4375 3 19.6207 3 17.3796V7.49537C3 5.25427 4.81677 3.4375 7.05787 3.4375ZM11.9984 6.71973C15.3076 6.71973 17.9997 8.90448 17.9997 11.5899C17.9997 12.6631 17.5829 13.6329 16.7133 14.5863C15.4544 16.0359 12.6391 17.8015 11.9984 18.071C11.3749 18.3332 11.4477 17.922 11.4764 17.7598C11.4772 17.7553 11.4779 17.751 11.4786 17.747C11.4938 17.657 11.5641 17.2334 11.5641 17.2334C11.5844 17.0804 11.6052 16.8425 11.5444 16.6906C11.4775 16.5235 11.2114 16.4369 11.0157 16.3947C8.13457 16.0139 5.99707 13.9974 5.99707 11.5899C5.99707 8.90448 8.6892 6.71973 11.9984 6.71973Z" fill="white"/>
<g id="Vector">
<path d="M16.0035 13.1396H14.316C14.2862 13.1396 14.2575 13.1277 14.2364 13.1066C14.2153 13.0855 14.2035 13.0569 14.2035 13.0271V10.4086C14.2035 10.3788 14.2153 10.3502 14.2364 10.3291C14.2575 10.308 14.2862 10.2961 14.316 10.2961H16.0035C16.0333 10.2961 16.0619 10.308 16.083 10.3291C16.1041 10.3502 16.116 10.3788 16.116 10.4086V10.8345C16.116 10.8643 16.1041 10.8929 16.083 10.914C16.0619 10.9351 16.0333 10.947 16.0035 10.947H14.8577V11.3885H16.0035C16.0333 11.3885 16.0619 11.4004 16.083 11.4215C16.1041 11.4426 16.116 11.4712 16.116 11.501V11.9308C16.116 11.9606 16.1041 11.9892 16.083 12.0103C16.0619 12.0314 16.0333 12.0433 16.0035 12.0433H14.8577V12.4854H16.0035C16.0333 12.4854 16.0619 12.4972 16.083 12.5183C16.1041 12.5394 16.116 12.5681 16.116 12.5979V13.0231C16.1165 13.0382 16.114 13.0533 16.1086 13.0674C16.1032 13.0815 16.095 13.0944 16.0845 13.1052C16.074 13.1161 16.0614 13.1248 16.0475 13.1307C16.0336 13.1366 16.0186 13.1396 16.0035 13.1396Z" fill="white"/>
<path d="M9.76706 13.1394C9.7969 13.1394 9.82551 13.1276 9.84661 13.1065C9.86771 13.0854 9.87956 13.0567 9.87956 13.0269V12.6017C9.87956 12.5718 9.86771 12.5432 9.84661 12.5221C9.82551 12.501 9.7969 12.4892 9.76706 12.4892H8.62125V10.4079C8.62125 10.3781 8.6094 10.3495 8.5883 10.3284C8.5672 10.3073 8.53859 10.2954 8.50875 10.2954H8.08125C8.05141 10.2954 8.0228 10.3073 8.0017 10.3284C7.9806 10.3495 7.96875 10.3781 7.96875 10.4079V13.0252C7.96875 13.0551 7.9806 13.0837 8.0017 13.1048C8.0228 13.1259 8.05141 13.1377 8.08125 13.1377H9.76875L9.76706 13.1394Z" fill="white"/>
<path d="M10.7818 10.291H10.3565C10.2932 10.291 10.2418 10.3424 10.2418 10.4058V13.0248C10.2418 13.0881 10.2932 13.1395 10.3565 13.1395H10.7818C10.8452 13.1395 10.8965 13.0881 10.8965 13.0248V10.4058C10.8965 10.3424 10.8452 10.291 10.7818 10.291Z" fill="white"/>
<path d="M13.6792 10.291H13.254C13.2242 10.291 13.1955 10.3029 13.1744 10.324C13.1533 10.3451 13.1415 10.3737 13.1415 10.4035V11.9594L11.9434 10.3411C11.9406 10.3368 11.9374 10.3328 11.9338 10.3293L11.9271 10.3225L11.9209 10.3175H11.9175L11.9113 10.313H11.9079L11.9017 10.3096H11.4253C11.3955 10.3096 11.3669 10.3214 11.3458 10.3425C11.3247 10.3636 11.3128 10.3922 11.3128 10.4221V13.0411C11.3128 13.0709 11.3247 13.0995 11.3458 13.1206C11.3669 13.1417 11.3955 13.1536 11.4253 13.1536H11.8511C11.881 13.1536 11.9096 13.1417 11.9307 13.1206C11.9518 13.0995 11.9636 13.0709 11.9636 13.0411V11.47L13.1634 13.09C13.1713 13.1015 13.1812 13.1114 13.1927 13.1193L13.1994 13.1238H13.2028L13.2084 13.1266H13.2259C13.2358 13.129 13.246 13.1304 13.2562 13.1305H13.6792C13.7091 13.1305 13.7377 13.1187 13.7588 13.0976C13.7799 13.0765 13.7917 13.0479 13.7917 13.018V10.4058C13.792 10.3908 13.7894 10.3759 13.7838 10.362C13.7783 10.3481 13.7701 10.3354 13.7596 10.3248C13.7491 10.3141 13.7366 10.3056 13.7228 10.2998C13.709 10.294 13.6942 10.291 13.6792 10.291Z" fill="white"/>
</g>
</g>
</g>
</svg>
