<svg width="24" height="25" viewBox="0 0 24 25" fill="none" xmlns="http://www.w3.org/2000/svg">
<g id="mdi:linkedin">
<path id="Vector" d="M19 3.4375C19.5304 3.4375 20.0391 3.64821 20.4142 4.02329C20.7893 4.39836 21 4.90707 21 5.4375V19.4375C21 19.9679 20.7893 20.4766 20.4142 20.8517C20.0391 21.2268 19.5304 21.4375 19 21.4375H5C4.46957 21.4375 3.96086 21.2268 3.58579 20.8517C3.21071 20.4766 3 19.9679 3 19.4375V5.4375C3 4.90707 3.21071 4.39836 3.58579 4.02329C3.96086 3.64821 4.46957 3.4375 5 3.4375H19ZM18.5 18.9375V13.6375C18.5 12.7729 18.1565 11.9437 17.5452 11.3323C16.9338 10.721 16.1046 10.3775 15.24 10.3775C14.39 10.3775 13.4 10.8975 12.92 11.6775V10.5675H10.13V18.9375H12.92V14.0075C12.92 13.2375 13.54 12.6075 14.31 12.6075C14.6813 12.6075 15.0374 12.755 15.2999 13.0176C15.5625 13.2801 15.71 13.6362 15.71 14.0075V18.9375H18.5ZM6.88 8.9975C7.32556 8.9975 7.75288 8.8205 8.06794 8.50544C8.383 8.19038 8.56 7.76306 8.56 7.3175C8.56 6.3875 7.81 5.6275 6.88 5.6275C6.43178 5.6275 6.00193 5.80555 5.68499 6.12249C5.36805 6.43943 5.19 6.86928 5.19 7.3175C5.19 8.2475 5.95 8.9975 6.88 8.9975ZM8.27 18.9375V10.5675H5.5V18.9375H8.27Z" fill="white"/>
</g>
</svg>
